<?xml version="1.0" encoding="UTF-8" standalone="no"?>
<!-- Created with Inkscape (http://www.inkscape.org/) -->

<svg
   width="79.113876mm"
   height="61.040188mm"
   viewBox="0 0 79.113876 61.040188"
   version="1.1"
   id="svg2034"
   inkscape:version="1.1.2 (0a00cf5339, 2022-02-04)"
   sodipodi:docname="Prototipo_logo.svg"
   xmlns:inkscape="http://www.inkscape.org/namespaces/inkscape"
   xmlns:sodipodi="http://sodipodi.sourceforge.net/DTD/sodipodi-0.dtd"
   xmlns="http://www.w3.org/2000/svg"
   xmlns:svg="http://www.w3.org/2000/svg"><sodipodi:namedview
   id="namedview2036"
   pagecolor="#505050"
   bordercolor="#ffffff"
   borderopacity="1"
   inkscape:pageshadow="0"
   inkscape:pageopacity="0"
   inkscape:pagecheckerboard="1"
   inkscape:document-units="mm"
   showgrid="false"
   inkscape:zoom="2"
   inkscape:cx="84.75"
   inkscape:cy="120.75"
   inkscape:window-width="1920"
   inkscape:window-height="978"
   inkscape:window-x="0"
   inkscape:window-y="0"
   inkscape:window-maximized="1"
   inkscape:current-layer="layer2"
   fit-margin-top="0"
   fit-margin-left="0"
   fit-margin-right="0"
   fit-margin-bottom="0"
   inkscape:snap-bbox="true"
   inkscape:bbox-nodes="true"
   inkscape:snap-nodes="false"
   inkscape:bbox-paths="true" />
<defs
   id="defs2031">
  <inkscape:path-effect
     effect="bspline"
     id="path-effect12536"
     is_visible="true"
     lpeversion="1"
     weight="33.333333"
     steps="2"
     helper_size="0"
     apply_no_weight="true"
     apply_with_weight="true"
     only_selected="false" />
  <inkscape:path-effect
     effect="bspline"
     id="path-effect12311"
     is_visible="true"
     lpeversion="1"
     weight="33.333333"
     steps="2"
     helper_size="0"
     apply_no_weight="true"
     apply_with_weight="true"
     only_selected="false" />
  <inkscape:path-effect
     effect="bspline"
     id="path-effect12194"
     is_visible="true"
     lpeversion="1"
     weight="33.333333"
     steps="2"
     helper_size="0"
     apply_no_weight="true"
     apply_with_weight="true"
     only_selected="false" />
  <inkscape:path-effect
     effect="bspline"
     id="path-effect12190"
     is_visible="true"
     lpeversion="1"
     weight="33.333333"
     steps="2"
     helper_size="0"
     apply_no_weight="true"
     apply_with_weight="true"
     only_selected="false" />
  <inkscape:path-effect
     effect="bspline"
     id="path-effect12186"
     is_visible="true"
     lpeversion="1"
     weight="33.333333"
     steps="2"
     helper_size="0"
     apply_no_weight="true"
     apply_with_weight="true"
     only_selected="false" />
  <inkscape:path-effect
     effect="bspline"
     id="path-effect12069"
     is_visible="true"
     lpeversion="1"
     weight="33.333333"
     steps="2"
     helper_size="0"
     apply_no_weight="true"
     apply_with_weight="true"
     only_selected="false" />
  <inkscape:path-effect
     effect="bspline"
     id="path-effect7525"
     is_visible="true"
     lpeversion="1"
     weight="33.333333"
     steps="2"
     helper_size="0"
     apply_no_weight="true"
     apply_with_weight="true"
     only_selected="false" />
  <inkscape:path-effect
     effect="bspline"
     id="path-effect7408"
     is_visible="true"
     lpeversion="1"
     weight="33.333333"
     steps="2"
     helper_size="0"
     apply_no_weight="true"
     apply_with_weight="true"
     only_selected="false" />
  <inkscape:path-effect
     effect="bspline"
     id="path-effect7404"
     is_visible="true"
     lpeversion="1"
     weight="33.333333"
     steps="2"
     helper_size="0"
     apply_no_weight="true"
     apply_with_weight="true"
     only_selected="false" />
  <inkscape:path-effect
     effect="bspline"
     id="path-effect7400"
     is_visible="true"
     lpeversion="1"
     weight="33.333333"
     steps="2"
     helper_size="0"
     apply_no_weight="true"
     apply_with_weight="true"
     only_selected="false" />
  <inkscape:path-effect
     effect="bspline"
     id="path-effect3608"
     is_visible="true"
     lpeversion="1"
     weight="33.333333"
     steps="2"
     helper_size="0"
     apply_no_weight="true"
     apply_with_weight="true"
     only_selected="false" />
  <inkscape:path-effect
     effect="bspline"
     id="path-effect3604"
     is_visible="true"
     lpeversion="1"
     weight="33.333333"
     steps="2"
     helper_size="0"
     apply_no_weight="true"
     apply_with_weight="true"
     only_selected="false" />
  <inkscape:path-effect
     effect="bspline"
     id="path-effect2328"
     is_visible="true"
     lpeversion="1"
     weight="33.333333"
     steps="2"
     helper_size="0"
     apply_no_weight="true"
     apply_with_weight="true"
     only_selected="false" />
  <inkscape:path-effect
     effect="bspline"
     id="path-effect2324"
     is_visible="true"
     lpeversion="1"
     weight="33.333333"
     steps="2"
     helper_size="0"
     apply_no_weight="true"
     apply_with_weight="true"
     only_selected="false" />
  <inkscape:path-effect
     effect="bspline"
     id="path-effect2320"
     is_visible="true"
     lpeversion="1"
     weight="33.333333"
     steps="2"
     helper_size="0"
     apply_no_weight="true"
     apply_with_weight="true"
     only_selected="false" />
  <inkscape:path-effect
     effect="bspline"
     id="path-effect2203"
     is_visible="true"
     lpeversion="1"
     weight="33.333333"
     steps="2"
     helper_size="0"
     apply_no_weight="true"
     apply_with_weight="true"
     only_selected="false" />
</defs>
<g
   inkscape:groupmode="layer"
   id="layer2"
   inkscape:label="Capa 2"
   style="display:inline"
   transform="translate(-13.533398,-110.23487)">
  <path
     style="fill:#ffeeaa;fill-opacity:1;stroke:#000000;stroke-width:0.529167;stroke-linecap:butt;stroke-linejoin:miter;stroke-miterlimit:4;stroke-dasharray:none;stroke-opacity:1"
     d="m 33.313518,170.41638 c 0.153528,0.0406 0.460272,0.12174 1.897896,0.23426 1.437625,0.11251 4.006065,0.25647 5.306992,0.32109 1.300927,0.0646 1.334459,0.0499 1.424893,-0.0595 0.09043,-0.10943 0.237945,-0.31372 1.08296,-1.51486 0.845015,-1.20114 2.387467,-3.39904 3.161689,-4.51431 0.774223,-1.11527 0.780181,-1.14798 0.187114,-2.5492 -0.593068,-1.40122 -1.785296,-4.17092 -2.393426,-5.56831 -0.608131,-1.39739 -0.632286,-1.42237 -2.215931,-1.55911 -1.583646,-0.13674 -4.726716,-0.385 -6.298321,-0.50714 -1.571606,-0.12214 -1.571451,-0.11914 -1.587242,-0.10259 -0.01579,0.0165 -0.04752,0.0463 -0.869971,1.2603 -0.822447,1.21397 -2.435509,3.61195 -3.24055,4.8168 -0.805041,1.20485 -0.802149,1.21625 -0.102363,2.63444 0.699786,1.41819 2.096316,4.24298 2.794514,5.65524 0.698198,1.41226 0.698219,1.41227 0.851746,1.45288 z"
     id="path2201"
     inkscape:path-effect="#path-effect2203"
     inkscape:original-d="m 33.159991,170.37577 c 0.307006,0.0814 0.613751,0.16253 0.920228,0.2434 2.568806,0.14423 5.137246,0.28819 7.705474,0.43189 0.03378,-0.0144 0.0673,-0.0291 0.100557,-0.044 0.147783,-0.20403 0.295294,-0.40832 0.442545,-0.61288 1.542778,-2.19773 3.08523,-4.39563 4.627446,-6.59383 0.0062,-0.0325 0.0122,-0.0652 0.01789,-0.0982 -1.192011,-2.76955 -2.384237,-5.53926 -3.576751,-8.30928 -0.02387,-0.0247 -0.04801,-0.0497 -0.07241,-0.0749 -3.14293,-0.24801 -6.286,-0.49628 -9.429398,-0.74482 5.29e-4,0.004 7.94e-4,0.007 5.29e-4,0.0103 -0.03148,0.0301 -0.06321,0.0599 -0.09521,0.0894 -1.612863,2.39834 -3.225927,4.79632 -4.839287,7.19409 0.0031,0.0117 0.006,0.0231 0.0087,0.0343 1.396849,2.82516 2.793375,5.64995 4.189666,8.47452 z" />
  <path
     style="fill:#ffeeaa;fill-opacity:1;stroke:#000000;stroke-width:0.529167;stroke-linecap:butt;stroke-linejoin:miter;stroke-miterlimit:4;stroke-dasharray:none;stroke-opacity:1"
     d="m 20.803051,145.26697 c 1.541049,0.0769 4.62287,0.23079 6.170936,0.30924 1.548067,0.0784 1.562397,0.0814 2.268489,1.4869 0.706091,1.40545 2.103982,4.21299 2.797679,5.62397 0.693696,1.41097 0.683376,1.42559 -0.20402,2.76242 -0.887396,1.33683 -2.651768,3.99572 -3.538886,5.30858 -0.887117,1.31287 -0.897061,1.27946 -2.48334,1.10902 -1.586279,-0.17044 -4.74894,-0.47754 -6.333159,-0.64449 -1.584219,-0.16694 -1.589717,-0.19405 -2.310312,-1.55516 -0.720594,-1.36112 -2.156326,-4.05611 -2.868825,-5.42683 -0.7125,-1.37072 -0.701535,-1.41693 0.245797,-2.70463 0.947333,-1.28771 2.830928,-3.81659 3.772759,-5.08108 0.941831,-1.26448 0.941833,-1.26488 2.482882,-1.18794 z"
     id="path2318"
     inkscape:path-effect="#path-effect2320"
     inkscape:original-d="m 19.262002,145.19003 c 3.082086,0.15412 6.163906,0.30798 9.245463,0.46157 0.0146,0.003 0.02893,0.006 0.043,0.009 1.39821,2.80791 2.796099,5.61545 4.193749,8.42277 -0.01005,0.0149 -0.0204,0.0295 -0.03099,0.0439 -1.764181,2.65926 -3.528552,5.31815 -5.293225,7.97683 -0.0097,-0.0332 -0.01966,-0.0666 -0.02987,-0.10035 -3.162522,-0.30685 -6.325183,-0.61396 -9.488172,-0.92133 -0.0052,-0.0268 -0.01073,-0.0539 -0.01649,-0.0813 -1.435527,-2.69484 -2.87126,-5.38983 -4.307288,-8.08515 0.01124,-0.046 0.02222,-0.0922 0.03293,-0.13876 1.883932,-2.52871 3.767525,-5.05759 5.650891,-7.58678 z" />
  <path
     style="fill:#ffeeaa;fill-opacity:1;stroke:#000000;stroke-width:0.529167;stroke-linecap:butt;stroke-linejoin:miter;stroke-miterlimit:4;stroke-dasharray:none;stroke-opacity:1"
     d="m 51.014258,147.0383 c 1.551838,0.0969 4.655233,0.29081 6.206929,0.39175 1.551695,0.10093 1.55196,0.10863 2.210439,1.43956 0.658479,1.33093 1.974977,3.98499 2.630265,5.32004 0.655288,1.33504 0.64954,1.35123 -0.158413,2.55593 -0.807954,1.20471 -2.418072,3.59795 -3.23218,4.79733 -0.814108,1.19938 -0.832282,1.20493 -2.312043,1.19808 -1.47976,-0.007 -4.421048,-0.0262 -5.928752,-0.0367 -1.507704,-0.0105 -1.581783,-0.0122 -1.62883,-0.0222 -0.04705,-0.01 -0.06705,-0.0286 -0.80202,-1.40085 -0.734975,-1.3722 -2.184754,-4.09792 -2.910409,-5.4681 -0.725655,-1.37018 -0.727021,-1.38477 -0.719147,-1.40349 0.0079,-0.0187 0.02502,-0.0412 0.875257,-1.28651 0.850242,-1.24531 2.533556,-3.71338 3.375248,-4.94746 0.841692,-1.23409 0.841818,-1.23434 2.393656,-1.13739 z"
     id="path2322"
     inkscape:path-effect="#path-effect2324"
     inkscape:original-d="m 49.46242,146.94135 c 3.10366,0.19414 6.207056,0.38801 9.310187,0.58162 5.29e-4,0.008 7.94e-4,0.0157 7.94e-4,0.0231 1.316812,2.65442 2.633307,5.30848 3.949565,7.96232 -0.0055,0.0164 -0.01122,0.0326 -0.01722,0.0485 -1.609918,2.3936 -3.220037,4.78684 -4.830453,7.17987 -0.01796,0.006 -0.03618,0.0114 -0.05466,0.0167 -2.94114,-0.0191 -5.882428,-0.0384 -8.824039,-0.058 -0.07381,-0.001 -0.147881,-0.003 -0.222219,-0.005 -0.01974,-0.0184 -0.03976,-0.037 -0.06003,-0.0559 -1.44957,-2.72556 -2.899346,-5.45128 -4.349419,-8.17731 -0.0011,-0.0143 -0.0024,-0.0289 -0.0041,-0.0438 0.01741,-0.0223 0.03455,-0.0448 0.05143,-0.0675 1.683644,-2.4679 3.366957,-4.93597 5.050038,-7.40435 z" />
  <path
     style="fill:#ffeeaa;fill-opacity:1;stroke:#000000;stroke-width:0.529167;stroke-linecap:butt;stroke-linejoin:miter;stroke-miterlimit:4;stroke-dasharray:none;stroke-opacity:1"
     d="m 42.857946,153.43705 c -3.077894,-0.18543 -6.155508,-0.37085 -7.702108,-0.46546 -1.546601,-0.0946 -1.561663,-0.0984 -2.157355,-1.42803 -0.595691,-1.32963 -1.771503,-3.98516 -2.360133,-5.32431 -0.58863,-1.33914 -0.589928,-1.36174 -0.583785,-1.37968 0.0061,-0.0179 0.01976,-0.0309 0.904534,-1.40003 0.884777,-1.36911 2.640725,-4.09433 3.525511,-5.46122 0.884786,-1.36689 0.898394,-1.37537 0.914004,-1.37889 0.01561,-0.004 0.03303,-0.002 1.439255,0.11092 1.40623,0.11309 4.201138,0.33795 5.610704,0.4191 1.409566,0.0812 1.434071,0.0185 2.129221,1.5186 0.69515,1.50008 2.059009,4.55892 2.730874,6.11895 0.671866,1.56002 0.651062,1.61948 -0.206185,2.81439 -0.857246,1.1949 -2.55086,3.52524 -4.24454,5.85566 0,0 3e-6,0 3e-6,0 z"
     id="path2326"
     inkscape:path-effect="#path-effect2328"
     inkscape:original-d="m 42.857946,153.43705 c 0,0 -6.155523,-0.3706 -9.233683,-0.5563 -0.01497,-0.004 -0.03023,-0.007 -0.04575,-0.0115 -1.175594,-2.65538 -2.351405,-5.31091 -3.527507,-7.96675 -0.0011,-0.0224 -0.0024,-0.045 -0.0039,-0.0679 0.01386,-0.0127 0.02746,-0.0257 0.04079,-0.0389 1.756289,-2.72507 3.512238,-5.45029 5.26796,-8.17584 0.01381,-0.008 0.02734,-0.0166 0.04062,-0.0253 0.0177,0.002 0.03514,0.003 0.05232,0.004 2.795283,0.22513 5.590191,0.44998 8.384889,0.67457 0.02476,-0.0624 0.04928,-0.12504 0.07354,-0.18801 1.36584,3.06296 2.729701,6.1218 4.094157,9.18231 -0.02053,0.0597 -0.04133,0.11916 -0.0624,0.17835 -1.693448,2.33073 -5.081039,6.99127 -5.081039,6.99127 z"
     sodipodi:nodetypes="cccccccccccccc" />
  <path
     style="fill:#ffeeaa;fill-opacity:1;stroke:#000000;stroke-width:0.529167;stroke-linecap:butt;stroke-linejoin:miter;stroke-miterlimit:4;stroke-dasharray:none;stroke-opacity:1"
     d="m 15.808616,137.14654 c 0.66744,1.3124 2.002157,3.93688 2.680551,5.25811 0.678394,1.32122 0.700367,1.33928 2.303053,1.43871 1.602686,0.0994 4.78603,0.28051 6.38376,0.36726 1.597729,0.0867 1.610271,0.0791 2.449688,-1.13436 0.839416,-1.21342 2.505888,-3.63268 3.343601,-4.85466 0.837713,-1.22198 0.846631,-1.24668 0.16505,-2.60385 -0.681582,-1.35717 -2.053841,-4.04684 -2.744853,-5.39365 -0.691012,-1.34681 -0.70113,-1.3506 -0.730311,-1.35582 -0.02918,-0.005 -0.07748,-0.0118 -1.583458,-0.14314 -1.505981,-0.13135 -4.469565,-0.38745 -5.959794,-0.51404 -1.490229,-0.12659 -1.507182,-0.12356 -2.424099,1.16854 -0.916916,1.29209 -2.733769,3.8731 -3.642196,5.1636 -0.908427,1.29051 -0.908432,1.2909 -0.240992,2.6033 z"
     id="path3602"
     inkscape:path-effect="#path-effect3604"
     inkscape:original-d="m 15.141176,135.83414 c 1.334984,2.62475 2.669704,5.24923 4.004159,7.87346 0.0222,0.0183 0.04414,0.0364 0.06582,0.0541 3.183737,0.18135 6.367081,0.36242 9.550224,0.54323 0.01267,-0.007 0.02508,-0.0149 0.03721,-0.0228 1.666801,-2.41908 3.333268,-4.83834 4.999506,-7.2579 0.0092,-0.0245 0.01812,-0.0492 0.02679,-0.0742 -1.372047,-2.6895 -2.744303,-5.37917 -4.116853,-8.06915 -0.0098,-0.003 -0.01984,-0.007 -0.03014,-0.0113 -0.04799,-0.006 -0.09624,-0.0129 -0.144756,-0.0197 -2.96344,-0.25585 -5.927025,-0.51195 -8.890934,-0.76832 -0.01652,0.003 -0.0333,0.007 -0.05035,0.009 -1.816662,2.58138 -3.633516,5.16239 -5.450671,7.74319 z" />
  <path
     style="fill:#ffeeaa;fill-opacity:1;stroke:#000000;stroke-width:0.529167;stroke-linecap:butt;stroke-linejoin:miter;stroke-miterlimit:4;stroke-dasharray:none;stroke-opacity:1"
     d="m 31.08573,128.78332 c 0.624799,1.31345 1.874251,3.94003 2.538518,5.25839 0.664266,1.31835 0.743203,1.32875 0.840764,1.34167 0.09756,0.0129 0.213739,0.0284 1.735838,0.13021 1.5221,0.10187 4.450005,0.29019 5.929382,0.3711 1.479378,0.0809 1.510444,0.0544 1.620973,-0.0736 0.110528,-0.12798 0.300586,-0.35753 1.227813,-1.62467 0.927228,-1.26715 2.591569,-3.57182 3.424927,-4.73387 0.833358,-1.16205 0.835695,-1.18164 0.782601,-1.2838 -0.05309,-0.10215 -0.161818,-0.287 -0.897407,-1.62748 -0.73559,-1.34047 -2.097978,-3.83647 -2.785959,-5.09394 -0.687981,-1.25748 -0.701583,-1.27638 -0.741977,-1.28566 -0.04039,-0.009 -0.107594,-0.009 -1.660568,-0.0431 -1.552974,-0.0345 -4.591595,-0.10405 -6.113287,-0.13546 -1.521693,-0.0314 -1.526002,-0.0248 -1.544108,9e-4 -0.01811,0.0257 -0.04999,0.0705 -0.882686,1.32141 -0.8327,1.25091 -2.466154,3.70783 -3.282879,4.93628 -0.816724,1.22846 -0.816744,1.2281 -0.191945,2.54155 z"
     id="path7398"
     inkscape:path-effect="#path-effect7400"
     inkscape:original-d="m 30.460931,127.46987 c 1.249714,2.62684 2.499164,5.25343 3.748349,7.87975 0.0792,0.0107 0.158137,0.0211 0.236808,0.0312 0.116454,0.0157 0.232637,0.0311 0.348557,0.0463 2.928289,0.18859 5.856194,0.3769 8.783896,0.56496 0.03131,-0.0262 0.06236,-0.0527 0.09315,-0.0794 0.190331,-0.22929 0.380389,-0.45884 0.570185,-0.68866 1.664671,-2.30449 3.329011,-4.60916 4.993121,-6.91414 0.0026,-0.0193 0.0049,-0.0389 0.007,-0.0587 -0.108463,-0.18459 -0.217186,-0.36944 -0.326175,-0.55455 -1.362179,-2.49584 -2.724568,-4.99184 -4.087252,-7.48816 -0.01334,-0.0186 -0.02694,-0.0375 -0.04081,-0.0567 -0.06695,8e-4 -0.134154,0.001 -0.201628,0.002 -3.038478,-0.0693 -6.077098,-0.13892 -9.116044,-0.20878 -0.0041,0.007 -0.0084,0.0136 -0.01307,0.02 -0.0316,0.045 -0.06347,0.0898 -0.0956,0.13432 -1.633257,2.45729 -3.266713,4.91421 -4.900467,7.37092 z" />
  <path
     style="fill:#ffeeaa;fill-opacity:1;stroke:#000000;stroke-width:0.529167;stroke-linecap:butt;stroke-linejoin:miter;stroke-miterlimit:4;stroke-dasharray:none;stroke-opacity:1"
     d="m 52.417523,129.13945 c 1.627923,0.06 4.883494,0.17997 6.521888,0.26003 1.638393,0.0801 1.659744,0.11996 1.827786,0.52713 0.168041,0.40717 0.482808,1.18159 1.101231,2.58067 0.618422,1.39907 1.540439,3.4227 1.989725,4.45609 0.449287,1.03339 0.426034,1.07669 -0.467319,2.20752 -0.893354,1.13083 -2.656777,3.34919 -3.557811,4.46111 -0.901034,1.11192 -0.939826,1.11742 -2.515734,1.08079 -1.575908,-0.0366 -4.688836,-0.11541 -6.293069,-0.17012 -1.604234,-0.0547 -1.699738,-0.0854 -2.391556,-1.46778 -0.691818,-1.38235 -1.979721,-4.11641 -2.61584,-5.4996 -0.63612,-1.3832 -0.620219,-1.41529 0.283925,-2.60611 0.904144,-1.19083 2.696465,-3.54027 3.592656,-4.71504 0.896191,-1.17476 0.896194,-1.17468 2.524118,-1.11469 z"
     id="path7406"
     inkscape:path-effect="#path-effect7408"
     inkscape:original-d="m 50.789599,129.07946 c 3.255838,0.12024 6.511409,0.24021 9.766718,0.35993 0.02159,0.0401 0.04294,0.08 0.06401,0.11962 0.315044,0.77472 0.629811,1.54914 0.944322,2.32331 0.922321,2.02398 1.844338,4.04761 2.76611,6.07102 -0.02299,0.0436 -0.04624,0.0869 -0.06976,0.1299 -1.763228,2.21871 -3.526652,4.43707 -5.290375,6.65521 -0.03856,0.006 -0.07738,0.0113 -0.116465,0.0165 -3.112785,-0.0785 -6.225712,-0.15731 -9.338966,-0.23636 -0.09525,-0.0305 -0.190764,-0.0612 -0.286546,-0.0922 -1.287687,-2.7339 -2.575589,-5.46796 -3.863782,-8.20234 0.01617,-0.0318 0.03205,-0.0639 0.04767,-0.0962 1.792655,-2.34927 3.584972,-4.69872 5.377061,-7.04847 z"
     sodipodi:nodetypes="cccccccccccccc" />
  <g
     id="g9566"
     transform="matrix(1.236841,0,0,1.236841,-21.374881,-28.050496)">
    <path
       style="fill:#000000;stroke-width:0.101879"
       d="m 70.736901,111.80529 c -0.379973,0 -0.519702,0.0555 -0.769864,0.30563 -0.168099,0.16809 -0.37315,0.30563 -0.455672,0.30563 -0.24699,0 -0.719494,0.28393 -0.940991,0.56551 -0.813315,1.03397 0.06528,3.57626 2.517932,7.28596 l 0.779017,1.17818 -0.713154,0.33946 c -0.952408,0.45337 -1.93563,1.43293 -2.383817,2.37466 -0.216825,0.45561 -0.36951,0.66504 -0.449501,0.61665 -0.06661,-0.0403 -0.594243,-0.38435 -1.172407,-0.76449 -3.987205,-2.62159 -6.50327,-3.35959 -7.431415,-2.17966 -0.117595,0.1495 -0.245031,0.4139 -0.283152,0.58739 -0.03811,0.17352 -0.190198,0.41951 -0.338071,0.54682 -0.234772,0.2021 -0.268536,0.30749 -0.265842,0.83035 0.0042,0.77398 0.401769,1.60831 1.109329,2.32811 1.169746,1.18995 2.300443,1.06005 2.300443,-0.26446 0,-1.06128 -0.831533,-2.30245 -2.019478,-3.01399 -0.115676,-0.0693 0.33679,-0.65845 0.546009,-0.71096 1.007813,-0.25295 3.386223,0.77992 6.310343,2.74059 l 1.118285,0.74996 0.01279,1.21419 c 0.01467,1.39465 0.27812,2.40065 0.89801,3.43008 l 0.352797,0.58579 -0.935021,3.9e-4 c -2.750381,0.001 -5.109248,0.91462 -6.660951,2.57922 -2.455349,2.63396 -3.041776,5.46142 -1.561419,7.52871 1.351847,1.88784 4.474442,2.65303 6.535392,1.60161 0.22837,-0.11651 0.425532,-0.19718 0.438161,-0.17928 0.01266,0.018 0.104815,0.25333 0.204754,0.52293 0.358379,0.96675 1.18889,1.79795 2.116582,2.11837 0.983681,0.33977 2.207636,0.19926 3.41554,-0.39219 1.053211,-0.5157 1.818223,-1.49079 2.418238,-3.08244 0.158424,-0.42027 0.293906,-0.7729 0.301261,-0.78381 0.0074,-0.0109 0.59463,0.27119 1.304929,0.627 2.836511,1.42091 5.396695,1.53945 7.787395,0.36016 l 1.00148,-0.49407 1.477249,0.61365 c 1.828624,0.75965 2.061921,0.80726 2.284722,0.46723 0.199208,-0.30404 0.139363,-0.49943 -0.318772,-1.04109 -0.412967,-0.48825 -0.805412,-1.293 -0.962677,-1.9743 -0.105931,-0.45892 -0.09636,-0.53074 0.108054,-0.81781 0.373268,-0.52423 0.790966,-1.54672 0.978799,-2.39556 0.137522,-0.62143 0.16562,-1.08234 0.124169,-2.03759 -0.06747,-1.5546 -0.372326,-2.63425 -1.187531,-4.2061 l -0.589986,-1.13779 0.622023,-0.22525 c 2.077471,-0.75184 3.130077,-1.71903 3.629248,-3.33515 0.224002,-0.72523 0.263425,-1.77863 0.09054,-2.41625 -0.263989,-0.97363 -1.155428,-1.9151 -2.146825,-2.26722 -0.270745,-0.0962 -0.492286,-0.20436 -0.492286,-0.24056 0,-0.0362 0.118861,-0.38078 0.264051,-0.76568 0.729265,-1.9333 0.213025,-4.26487 -1.27369,-5.75221 -0.861461,-0.86182 -1.503352,-1.13214 -2.828143,-1.19091 -1.447131,-0.0642 -2.772425,0.4208 -4.270372,1.56282 -2.31348,1.76377 -3.310699,3.8002 -3.476828,7.1001 -0.03316,0.6584 -0.07461,1.19709 -0.09213,1.19709 -0.01752,0 -0.251243,-0.13917 -0.519345,-0.30923 -0.268106,-0.17005 -0.854272,-0.42966 -1.302543,-0.57705 -0.690773,-0.2271 -1.004946,-0.26927 -2.060864,-0.27658 l -1.245833,-0.008 -0.802498,-1.22255 c -1.808251,-2.75476 -2.767653,-4.77688 -2.767653,-5.83358 0,-0.61691 0.635556,-1.18939 0.862393,-0.77684 0.05808,0.10562 0.349303,0.43663 0.64729,0.73565 1.169799,1.17384 2.917184,1.50062 3.284412,0.61405 0.448305,-1.08229 -1.525046,-2.94056 -3.122837,-2.94056 z"
       id="path1470" />
    <path
       style="fill:#ffffff;stroke-width:0.101879"
       d="m 75.821511,133.39811 -0.06626,1.35268 c -0.183241,3.73682 -1.088176,7.13092 -2.244924,8.41996 -0.32473,0.36187 -0.892188,0.69451 -1.580721,0.92646 -2.123654,0.71541 -3.722195,-0.4549 -3.857284,-2.82415 -0.107142,-1.87925 0.377611,-3.25206 1.585496,-4.48946 1.167666,-1.1962 3.065614,-2.30422 5.256332,-3.06871 z"
       id="path2012" />
    <path
       style="fill:#ffcc00;stroke-width:0.101879"
       d="m 88.371759,132.61452 c 0.0068,6.4e-4 0.0117,0.003 0.01471,0.005 0.125666,0.12562 0.231284,0.96057 0.235597,1.86227 0.0084,1.76173 -0.503957,3.08965 -1.745876,4.52448 -1.12686,1.30188 -2.547776,2.18548 -4.01468,2.49623 -0.625843,0.13257 -1.865915,0.18508 -2.283527,0.0966 -0.08405,-0.0178 -0.324741,-0.0604 -0.534866,-0.0947 -0.225722,-0.0368 -0.382046,-0.1195 -0.382046,-0.20217 0,-0.23246 1.077174,-2.30362 1.547092,-2.97478 1.116848,-1.59514 2.531155,-2.99572 4.193762,-4.15297 0.818349,-0.56963 2.760841,-1.58622 2.96982,-1.56083 z"
       id="path2010" />
    <path
       style="fill:#ffffff;stroke-width:0.101879"
       d="m 68.658127,131.83211 c 1.134166,-0.004 2.189062,0.0456 2.648859,0.12589 1.103837,0.19301 3.362015,0.75115 3.362015,0.83097 0,0.0374 -0.26116,0.15048 -0.580431,0.25111 -0.855178,0.26957 -3.03943,1.4091 -3.800375,1.98267 -1.468323,1.10677 -2.457988,2.37831 -2.861771,3.67699 -0.116901,0.37598 -0.232279,1.11352 -0.26624,1.70091 l -0.06009,1.03711 -0.570881,0.25589 c -0.313975,0.14075 -0.777188,0.30319 -1.029338,0.36116 -2.079199,0.47793 -4.546482,-0.88499 -4.996261,-2.75989 -0.389926,-1.6254 0.362891,-3.48336 2.143641,-5.29056 0.78685,-0.79854 1.113198,-1.05158 1.744484,-1.3527 1.409791,-0.67244 2.13064,-0.81098 4.266392,-0.81961 z"
       id="path2008" />
    <path
       style="fill:#ffcc00;stroke-width:0.101879"
       d="m 86.623496,129.05948 c 0.125216,3.3e-4 0.183391,0.0358 0.254299,0.10671 0.08664,0.0867 0.137307,0.17244 0.112627,0.19082 -0.02468,0.0182 -0.581261,0.29703 -1.236877,0.61923 -3.970163,1.9511 -7.20421,5.25292 -8.945077,9.13272 -0.421557,0.93951 -0.416728,0.93386 -0.643112,0.76668 -0.157639,-0.11651 -0.169786,-0.19406 -0.08238,-0.5281 0.207938,-0.79467 0.521421,-3.20146 0.587797,-4.51294 l 0.06845,-1.35088 0.42622,-0.57487 c 0.622654,-0.83965 1.673572,-1.94071 2.465399,-2.58301 l 0.69246,-0.56172 1.228122,-0.0632 c 1.372227,-0.0705 3.276047,-0.30222 4.415431,-0.53725 0.339054,-0.0698 0.531424,-0.10453 0.656643,-0.10425 z"
       id="path2006" />
    <path
       style="fill:#ffcc00;stroke-width:0.101879"
       d="m 78.172294,125.36994 c 0.0016,-1e-4 0.0029,1.9e-4 0.0034,6.5e-4 0.01571,0.0195 0.120834,0.41012 0.233805,0.86796 l 0.205549,0.83235 -0.826774,0.5886 c -1.008602,0.71788 -2.601273,2.29174 -3.260931,3.22252 -0.288203,0.40666 -0.556702,0.68309 -0.656843,0.67634 -0.153641,-0.0109 -1.457431,-0.30835 -1.520029,-0.34742 -0.03401,-0.0212 0.887966,-1.62364 1.365619,-2.37347 0.608885,-0.95582 1.595257,-1.8206 3.082842,-2.70278 0.718328,-0.42598 1.322058,-0.76201 1.373379,-0.76489 z"
       id="path2004" />
    <path
       style="fill:#ffffff;stroke-width:0.101879"
       d="m 87.645672,121.08385 c 0.145913,-2.9e-4 0.29952,0.003 0.462632,0.008 0.930286,0.032 1.158659,0.0762 1.661706,0.32255 1.103785,0.54035 1.575967,1.39955 1.483023,2.6986 -0.06228,0.87037 -0.524053,1.88281 -1.093812,2.39755 -1.006281,0.90911 -2.984303,1.58207 -5.862632,1.9948 -0.784468,0.11256 -1.970194,0.23622 -2.63493,0.27479 l -1.208623,0.0701 0.07562,-0.34345 c 0.08818,-0.40152 0.841491,-2.30169 1.17161,-2.95529 0.88003,-1.74234 2.26153,-3.30034 3.456733,-3.89827 0.827008,-0.41374 1.467287,-0.56752 2.488678,-0.56948 z"
       id="path2002" />
    <path
       style="fill:#ffffff;stroke-width:0.101879"
       d="m 85.524314,113.43713 c 0.405354,0.003 0.786971,0.0531 1.062967,0.15044 1.513537,0.53401 2.488814,2.14763 2.49405,4.12671 0.0023,0.85465 -0.03339,1.05126 -0.305041,1.68101 l -0.307628,0.71315 -1.067343,0.0632 c -1.946146,0.11515 -2.9221,0.55892 -4.332453,1.96934 -0.936863,0.93689 -1.350596,1.49353 -2.032809,2.73561 -0.209321,0.3811 -0.577805,1.17678 -0.818815,1.76816 l -0.438161,1.0753 -0.212712,-0.69842 c -0.11705,-0.38413 -0.333834,-1.31735 -0.481737,-2.0738 -0.225732,-1.15451 -0.269855,-1.66168 -0.274398,-3.15826 -0.0063,-2.07081 0.183249,-3.0741 0.82737,-4.37843 0.761182,-1.54136 2.681605,-3.19153 4.379614,-3.76355 0.378305,-0.1274 0.863076,-0.19801 1.332191,-0.20894 0.05863,-10e-4 0.116996,-10e-4 0.174905,-10e-4 z"
       id="path2000" />
  </g>
  <path
     style="fill:none;stroke-width:0.353553"
     d="m 143.71945,578.18126 c -7.48649,-0.46873 -14.19404,-1.00827 -14.90567,-1.19898 -0.88167,-0.23628 -1.5068,-0.7112 -1.96225,-1.49077 -1.59951,-2.73776 -12.48649,-27.89003 -12.24426,-28.288 1.58235,-2.59973 19.03291,-29.53047 19.33621,-29.84077 0.31196,-0.31916 1.80819,-0.29846 6.41722,0.0888 3.30572,0.27775 10.1406,0.80236 15.18863,1.1658 l 9.17822,0.66081 0.9472,1.1346 c 0.52097,0.62403 2.85678,5.37788 5.19069,10.56412 8.93908,19.86372 9.54797,21.53182 8.55297,23.43148 -0.24407,0.466 -4.33062,6.21686 -9.0812,12.7797 l -8.63743,11.93242 -2.18426,-0.0435 c -1.20134,-0.0239 -8.30957,-0.42699 -15.79607,-0.89571 z"
     id="path5038"
     transform="scale(0.26458333)" />
  <path
     style="fill:none;stroke-width:0.353553"
     d="m 154.14928,512.63373 c -2.139,-0.14845 -8.26431,-0.54556 -13.61181,-0.88248 -5.34749,-0.33691 -9.91443,-0.76282 -10.14875,-0.94645 -0.69804,-0.54705 -2.66852,-4.34164 -7.84278,-15.10297 -5.69867,-11.85201 -6.21497,-13.10354 -5.9088,-14.3234 0.12411,-0.49448 4.19639,-6.86119 9.04952,-14.14825 l 8.82388,-13.24919 7.87482,0.20405 c 4.33116,0.11223 12.06475,0.30696 17.18577,0.43273 l 9.31093,0.22867 8.1432,14.83284 8.14321,14.83283 -0.58748,1.07707 c -0.58126,1.06565 -5.13814,7.41772 -14.78593,20.61089 l -4.97697,6.8059 -3.38986,-0.0512 c -1.86443,-0.0281 -5.13995,-0.17263 -7.27895,-0.32107 z"
     id="path5077"
     transform="scale(0.26458333)" />
  <path
     style="fill:none;stroke-width:0.353553"
     d="m 199.22734,545.85978 c -10.17383,-0.32681 -10.87368,-0.40933 -12.17905,-1.43613 -1.47357,-1.15912 -13.52405,-25.99523 -13.88646,-28.6201 -0.10638,-0.77049 0.0366,-1.67248 0.36442,-2.2981 0.29674,-0.5664 4.42111,-6.12098 9.16527,-12.34352 6.14367,-8.05817 8.97536,-11.49642 9.84074,-11.94867 1.07855,-0.56366 1.8503,-0.61059 6.87185,-0.41792 17.8083,0.68327 28.16518,1.23568 28.7179,1.53173 0.34487,0.18472 1.25329,1.82308 2.01872,3.64081 0.76543,1.81773 3.57515,8.22441 6.24382,14.23706 l 4.85213,10.9321 -1.11729,0.55839 c -0.7862,0.39291 -1.44008,1.21378 -2.20652,2.77001 -0.59908,1.2164 -1.43435,2.579 -1.85616,3.028 -0.60287,0.64173 -0.76693,1.25021 -0.76693,2.84458 v 2.02822 l -5.61743,6.9646 c -3.08958,3.83053 -6.04534,7.36235 -6.56835,7.84849 -0.94369,0.87716 -1.00384,0.88421 -7.90599,0.92697 -3.82528,0.0237 -11.01209,-0.0872 -15.97067,-0.24652 z"
     id="path5116"
     transform="scale(0.26458333)" />
  <path
     style="fill:none;stroke-width:0.353553"
     d="m 207.00551,613.5442 c -0.48614,-0.0921 -1.83848,-0.46296 -3.0052,-0.82421 -3.59111,-1.1119 -4.75597,-1.13499 -9.51267,-0.18852 -4.82956,0.96096 -9.2787,1.15401 -10.18014,0.44172 -0.30762,-0.24307 -4.0023,-6.9229 -8.21041,-14.84407 l -7.6511,-14.40212 8.01781,-11.76083 c 10.68908,-15.67914 10.20062,-15.03428 11.70206,-15.44885 0.90536,-0.24998 5.12017,-0.10517 14.73839,0.50637 18.01985,1.14572 17.80601,1.12114 18.85232,2.16745 1.12598,1.12598 13.55205,26.44128 13.78386,28.08151 0.16442,1.16334 -0.3765,2.08599 -7.19589,12.27392 -4.93149,7.36748 -7.57919,11.02002 -7.99421,11.02808 -0.34129,0.007 -1.89468,0.67911 -3.45198,1.49439 -2.62774,1.37569 -3.05367,1.4881 -5.9202,1.56244 -1.69882,0.0441 -3.4865,0.005 -3.97264,-0.0873 z"
     id="path5155"
     transform="scale(0.26458333)" />
  <path
     style="fill:none;stroke-width:0.353553"
     d="m 148.13887,645.00387 c -6.74837,-1.07556 -18.79087,-1.97383 -19.60933,-1.46269 -0.38947,0.24322 -0.9698,0.26456 -1.63423,0.0601 -0.92983,-0.28616 -1.70856,-1.6787 -7.98528,-14.27934 -8.00723,-16.07464 -8.23995,-16.59989 -7.91995,-17.87485 0.12949,-0.51594 4.06608,-6.64815 8.74798,-13.62714 l 8.51255,-12.68907 h 1.57221 c 2.1922,0 27.70909,2.06277 30.51364,2.4667 1.90891,0.27494 2.45118,0.51206 3.20202,1.40018 0.9422,1.11447 12.17604,26.94759 12.55968,28.88201 0.12404,0.62546 0.0313,1.47018 -0.21346,1.94454 -0.23802,0.46128 -4.35082,6.44523 -9.13955,13.29767 l -8.70678,12.45898 -3.35876,-0.035 c -1.84732,-0.0192 -4.79065,-0.26318 -6.54074,-0.54211 z"
     id="path5194"
     transform="scale(0.26458333)" />
  <path
     style="fill:none;stroke-width:0.353553"
     d="m 100.58594,610.88016 c -0.48614,-0.20285 -2.879887,-0.5055 -5.319444,-0.67255 -2.724352,-0.18655 -4.974924,-0.53252 -5.833631,-0.89679 -1.074311,-0.45573 -3.117428,-0.65363 -8.822692,-0.85457 -6.710512,-0.23634 -7.570629,-0.3377 -8.942677,-1.05382 -1.07135,-0.55917 -1.870695,-0.73509 -2.716449,-0.59784 -0.967368,0.15698 -1.295427,0.0461 -1.701733,-0.57497 -1.705253,-2.60677 -14.118142,-26.61254 -14.281584,-27.61972 -0.139864,-0.86188 0.0056,-1.57353 0.488719,-2.39119 1.252832,-2.12031 17.137532,-23.40986 18.608834,-24.94059 l 1.444271,-1.5026 3.903863,0.0112 c 6.708494,0.0192 28.324643,1.29723 29.117363,1.72148 0.40916,0.21898 1.14686,0.92641 1.63933,1.57206 1.37696,1.80529 13.68428,27.1096 13.88395,28.54592 0.1137,0.81797 -0.0432,1.6928 -0.44199,2.46394 -1.11031,2.1471 -16.65791,25.23305 -17.66597,26.23142 -1.03361,1.02367 -1.90037,1.16777 -3.36016,0.55862 z"
     id="path5233"
     transform="scale(0.26458333)" />
  <path
     style="fill:none;stroke-width:0.353553"
     d="m 88.565124,543.59484 c -7.097584,-0.43177 -13.40179,-0.89654 -14.009347,-1.03282 -0.607557,-0.13629 -1.442065,-0.60696 -1.854463,-1.04594 -0.854568,-0.90965 -13.143849,-24.79522 -13.818333,-26.85745 -0.543312,-1.66118 -0.60922,-1.54686 7.679077,-13.31992 10.050151,-14.27569 10.924128,-15.42136 12.152181,-15.93004 0.980053,-0.40595 3.298149,-0.28414 17.106971,0.89891 l 15.9733,1.36849 7.30041,14.39319 c 4.01523,7.91626 7.30042,14.77831 7.30042,15.24901 0,0.4707 -0.52544,1.72151 -1.16763,2.77957 -2.65967,4.38199 -14.89208,21.82223 -16.16602,23.04856 l -1.3773,1.32582 -3.10729,-0.0462 c -1.709,-0.0254 -8.914391,-0.39944 -16.011976,-0.8312 z"
     id="path5272"
     transform="scale(0.26458333)" />
  <path
     style="fill:#ccff00;stroke-width:0.353553"
     d=""
     id="path5504"
     transform="scale(0.26458333)" />
</g>


  2&gt;</svg>
